<?xml version="1.0" encoding="utf-8"?>
<!-- Generator: Adobe Illustrator 22.0.1, SVG Export Plug-In . SVG Version: 6.00 Build 0)  -->
<svg version="1.1" id="Layer_1" xmlns="http://www.w3.org/2000/svg" xmlns:xlink="http://www.w3.org/1999/xlink" x="0px" y="0px"
	 viewBox="0 0 72 45" style="enable-background:new 0 0 72 45;" xml:space="preserve">
<style type="text/css">
	.st0{clip-path:url(#SVGID_2_);}
</style>
<g>
	<g>
		<defs>
			<rect id="SVGID_1_" width="72" height="45"/>
		</defs>
		<clipPath id="SVGID_2_">
			<use xlink:href="#SVGID_1_"  style="overflow:visible;"/>
		</clipPath>
		<path class="st0" d="M65,6.3H47V1.9h18V6.3z M35,24.7c1.2,1.8,1.7,4,1.7,6.6c0,2.7-0.7,5-2,7.1c-0.8,1.4-1.9,2.6-3.2,3.5
			c-1.4,1.1-3.1,1.8-5.1,2.3c-1.9,0.4-4.1,0.6-6.3,0.6H0V0h21.6c5.5,0.1,9.3,1.7,11.6,4.8c1.4,1.9,2.1,4.2,2.1,6.8
			c0,2.7-0.7,4.9-2.1,6.6c-0.8,0.9-1.9,1.8-3.4,2.6C32.1,21.6,33.8,22.9,35,24.7L35,24.7z M10.3,17.7h9.5c1.9,0,3.5-0.4,4.7-1.1
			c1.2-0.7,1.8-2.1,1.8-3.9c0-2.1-0.8-3.5-2.4-4.1c-1.4-0.5-3.1-0.7-5.3-0.7h-8.3V17.7z M27.3,30.6c0-2.3-0.9-3.9-2.8-4.8
			c-1.1-0.5-2.6-0.7-4.5-0.8h-9.6V37h9.5c1.9,0,3.4-0.3,4.5-0.8C26.3,35.3,27.3,33.4,27.3,30.6L27.3,30.6z M71.7,23.4
			c0.2,1.5,0.3,3.6,0.3,6.4H48.6c0.1,3.2,1.2,5.5,3.4,6.8c1.3,0.8,2.8,1.2,4.6,1.2c1.9,0,3.5-0.5,4.7-1.5c0.7-0.5,1.2-1.3,1.7-2.2
			h8.6c-0.2,1.9-1.3,3.8-3.1,5.8c-2.9,3.1-6.9,4.7-12.1,4.7c-4.3,0-8-1.3-11.3-3.9c-3.3-2.6-4.9-6.9-4.9-12.9
			c0-5.6,1.5-9.8,4.4-12.8c3-3,6.8-4.4,11.5-4.4c2.8,0,5.3,0.5,7.5,1.5c2.2,1,4.1,2.6,5.5,4.7C70.5,18.6,71.3,20.8,71.7,23.4
			L71.7,23.4z M63.3,24.2c-0.2-2.2-0.9-3.9-2.2-5.1c-1.3-1.2-3-1.7-5-1.7c-2.2,0-3.8,0.6-5,1.8c-1.2,1.2-1.9,2.9-2.2,5H63.3z
			 M63.3,24.2"/>
	</g>
</g>
</svg>
